<?xml version="1.0" standalone="no"?>
<!DOCTYPE svg PUBLIC "-//W3C//DTD SVG 20010904//EN"
 "http://www.w3.org/TR/2001/REC-SVG-20010904/DTD/svg10.dtd">
<svg version="1.0" xmlns="http://www.w3.org/2000/svg"
 width="700.000000pt" height="700.000000pt" viewBox="0 0 700.000000 700.000000"
 preserveAspectRatio="xMidYMid meet">
<metadata>
Created by potrace 1.11, written by Peter Selinger 2001-2013
</metadata>
<g transform="translate(0.000000,700.000000) scale(0.100000,-0.100000)"
fill="#000000" stroke="none">
<path d="M3308 6995 c-2 -1 -37 -5 -78 -9 -41 -4 -91 -9 -110 -12 -446 -63
-780 -167 -1341 -415 -355 -157 -591 -290 -733 -412 -257 -222 -491 -529 -641
-842 -122 -254 -244 -667 -279 -945 -3 -25 -8 -61 -11 -80 -3 -19 -7 -55 -10
-80 -12 -101 -24 -186 -31 -225 -3 -11 -7 -36 -10 -55 -3 -19 -10 -52 -15 -72
-41 -157 -48 -241 -43 -493 3 -137 6 -263 8 -280 2 -16 6 -68 10 -115 4 -47 9
-96 11 -110 2 -14 7 -50 10 -80 3 -30 10 -80 15 -110 5 -30 12 -72 16 -94 3
-21 8 -48 10 -60 3 -11 7 -32 10 -46 38 -188 111 -417 187 -580 56 -120 192
-327 311 -475 164 -203 448 -487 661 -660 27 -22 62 -52 79 -66 186 -155 459
-324 686 -425 187 -82 439 -159 640 -194 36 -6 76 -13 90 -15 14 -3 48 -8 75
-11 28 -3 61 -8 75 -10 110 -18 593 -25 705 -11 145 19 226 35 395 77 141 36
365 104 465 143 22 9 87 32 145 53 325 114 725 286 935 402 381 211 648 453
812 737 85 147 145 283 283 637 38 97 109 270 158 385 203 472 231 663 167
1138 -2 17 -6 50 -9 75 -3 25 -8 67 -11 93 -6 50 -10 105 -20 247 -7 120 -16
212 -20 230 -3 8 -7 42 -10 75 -4 33 -10 76 -15 95 -5 19 -12 53 -15 75 -12
78 -69 274 -107 370 -42 105 -119 255 -180 345 -34 52 -65 97 -68 100 -3 3
-23 28 -45 55 -54 68 -217 255 -350 400 -60 66 -148 163 -195 215 -127 142
-382 394 -495 491 -94 81 -260 209 -270 209 -3 0 -30 16 -62 37 -113 72 -348
169 -518 213 -105 27 -101 26 -165 36 -30 4 -57 8 -60 9 -30 7 -98 16 -152 20
-36 3 -81 8 -100 11 -34 6 -784 14 -790 9z"/>
</g>
</svg>
